<svg width="26.363770" height="20.000000" viewBox="0 0 26.3638 20" fill="none" xmlns="http://www.w3.org/2000/svg" xmlns:xlink="http://www.w3.org/1999/xlink">
	<desc>
			Created with Pixso.
	</desc>
	<defs>
		<clipPath id="clip176_26">
			<rect id="svg" width="26.363647" height="20.000000" fill="white" fill-opacity="0"/>
		</clipPath>
	</defs>
	<g clip-path="url(#clip176_26)">
		<path id="Vector" d="M21.5166 0C19.6943 0 18.2002 1.48486 18.2002 3.33643L18.2002 6.80127L22.8833 6.80127C22.9927 6.80127 23.1201 6.80127 23.2114 6.81934C24.2686 6.87451 25.0522 7.42432 25.0522 8.37793C25.0522 9.12891 24.5234 9.77051 23.5396 9.89941C24.6147 9.97266 25.4346 10.6138 25.4346 11.5493C25.4346 12.5576 24.5234 13.2173 23.3208 13.2173L18.1821 13.2173L18.1821 20L23.0474 20C24.8696 20 26.3638 18.5151 26.3638 16.6636L26.3638 0L21.5166 0Z" fill="#000000" fill-opacity="1.000000" fill-rule="nonzero"/>
		<path id="Vector" d="M3.33496 0C1.51221 0 0.0180664 1.48633 0.0180664 3.33936L0.0180664 11.5781C0.947754 12.0366 1.91309 12.3301 2.87891 12.3301C4.02734 12.3301 4.64697 11.6333 4.64697 10.6792L4.64697 6.78906L7.48926 6.78906L7.48926 10.6606C7.48926 12.165 6.56006 13.3945 3.40771 13.3945C1.49414 13.3945 0 12.9722 0 12.9722L0 20L4.86523 20C6.6875 20 8.18164 18.5137 8.18164 16.6606L8.18164 0L3.33496 0Z" fill="#000000" fill-opacity="1.000000" fill-rule="nonzero"/>
		<path id="Vector" d="M12.4072 0C10.585 0 9.09082 1.4834 9.09082 3.33301L9.09082 7.69238C9.9292 6.97803 11.3867 6.52002 13.7378 6.63037C14.9951 6.68506 16.3433 7.0332 16.3433 7.0332L16.3433 8.44336C15.6689 8.09521 14.8672 7.78418 13.8286 7.71045C12.043 7.58252 10.9678 8.46143 10.9678 10C10.9678 11.5571 12.043 12.436 13.8286 12.2891C14.8672 12.2163 15.6689 11.8867 16.3433 11.5571L16.3433 12.9668C16.3433 12.9668 15.0132 13.3149 13.7378 13.3701C11.3867 13.4795 9.9292 13.022 9.09082 12.3076L9.09082 20L13.9561 20C15.7783 20 17.2725 18.5166 17.2725 16.6665L17.2725 0L12.4072 0Z" fill="#000000" fill-opacity="1.000000" fill-rule="nonzero"/>
	</g>
</svg>
