<svg width="21.030518" height="21.000000" viewBox="0 0 21.0305 21" fill="none" xmlns="http://www.w3.org/2000/svg" xmlns:xlink="http://www.w3.org/1999/xlink">
	<desc>
			Created with Pixso.
	</desc>
	<defs/>
	<path id="Vector" d="M16.571 2.73608C16.7471 2.6062 16.9233 2.47632 17.1047 2.34375C17.0857 2.32495 17.0723 2.31396 17.0613 2.30591C16.4004 1.76758 15.6853 1.3186 14.9109 0.961426C13.6973 0.401367 12.4216 0.090332 11.0891 0.017334C10.2981 -0.0288086 9.51001 0.017334 8.72998 0.152588Q8.00439 0.277344 7.31006 0.499268Q6.62769 0.717285 5.97534 1.02905C4.79712 1.59717 3.75708 2.35742 2.85767 3.30688C2.09668 4.11304 1.47925 5.01929 1.00513 6.02026C0.414795 7.26733 0.0869141 8.57935 0.013916 9.9563C-0.0268555 10.7517 0.0219727 11.5442 0.162842 12.3315C0.328125 13.2729 0.615234 14.1765 1.02954 15.0366C1.6687 16.365 2.54907 17.512 3.67041 18.4697C4.51538 19.1946 5.45264 19.7734 6.48462 20.2009C7.6167 20.6689 8.79761 20.9314 10.022 20.9883Q10.6392 21.0173 11.2517 20.9749Q11.7517 20.9404 12.2483 20.8584C13.2207 20.696 14.155 20.4038 15.0435 19.9792C16.2866 19.384 17.3701 18.5779 18.2964 17.5605C19.2283 16.5354 19.9324 15.3721 20.4065 14.0681C20.7937 13.0024 20.9968 11.9041 21.0266 10.7705C21.043 10.1672 21.0078 9.56665 20.9182 8.97168C20.9021 8.85791 20.8804 8.74438 20.8613 8.62524C20.8398 8.6416 20.8262 8.64966 20.8127 8.65771C20.0869 9.19067 19.3635 9.72363 18.6377 10.2566C18.6025 10.2837 18.5945 10.3135 18.5945 10.354C18.6079 11.0276 18.5403 11.6904 18.3831 12.345C17.9905 13.9817 17.1697 15.3694 15.9185 16.4922C14.5371 17.7339 12.9146 18.4155 11.062 18.5535C10.3496 18.6077 9.63989 18.5615 8.94116 18.4182C7.21045 18.0637 5.73975 17.2388 4.55054 15.9348C3.33447 14.6038 2.6438 13.0349 2.47046 11.2385C2.40283 10.5515 2.42993 9.86694 2.5437 9.1853C2.69263 8.29517 2.98511 7.45117 3.41846 6.65869C3.84375 5.88232 4.38281 5.19238 5.03271 4.58911C5.65845 4.01025 6.35718 3.54224 7.12915 3.18237C8.05273 2.75488 9.02246 2.51147 10.0354 2.44922C10.7097 2.40869 11.3789 2.4519 12.0425 2.5791C13.1123 2.78467 14.1008 3.18774 15.0056 3.7937C15.0544 3.82617 15.0842 3.82886 15.1328 3.7937C15.6123 3.43945 16.0918 3.08765 16.571 2.73608ZM9.84033 12.8022C10.0652 12.9429 10.29 13.0862 10.5149 13.2268C10.5393 13.2107 10.5608 13.1943 10.5852 13.1755C11.9287 12.1853 13.2749 11.1953 14.6208 10.2051C16.4221 8.87964 18.2261 7.55127 20.03 6.22583C20.0759 6.19336 20.084 6.17163 20.0598 6.11768C19.8025 5.57373 19.5044 5.05713 19.1631 4.56201C19.0549 4.40527 18.9412 4.25098 18.8274 4.09399C18.8003 4.11304 18.7839 4.12378 18.7651 4.13745C18.2124 4.54321 17.6626 4.94629 17.1128 5.35205C14.9377 6.95068 12.7656 8.54956 10.5906 10.1484C10.5393 10.1836 10.5066 10.197 10.4443 10.1592C9.1958 9.37744 7.94702 8.59546 6.6958 7.81641C6.6416 7.78125 6.5874 7.74878 6.51978 7.70825L6.51978 7.81104C6.51978 8.7417 6.51978 9.67212 6.51709 10.6028C6.51709 10.6895 6.54688 10.7354 6.61719 10.7786C7.69263 11.4495 8.76514 12.126 9.84033 12.8022Z" fill="#333F48" fill-opacity="1.000000" fill-rule="evenodd"/>
</svg>
