<svg width="50.513672" height="14.021484" viewBox="0 0 50.5137 14.0215" fill="none" xmlns="http://www.w3.org/2000/svg" xmlns:xlink="http://www.w3.org/1999/xlink">
	<desc>
			Created with Pixso.
	</desc>
	<defs>
		<clipPath id="clip176_23">
			<rect id="svg" width="50.513672" height="14.021484" fill="white" fill-opacity="0"/>
		</clipPath>
		<linearGradient id="paint_linear_176_25_0" x1="35.513641" y1="2.511709" x2="50.513687" y2="2.511709" gradientUnits="userSpaceOnUse">
			<stop offset="0.300000" stop-color="#000000"/>
			<stop offset="1.000000" stop-color="#000000"/>
		</linearGradient>
	</defs>
	<g clip-path="url(#clip176_23)">
		<path id="Vector" d="M13.8052 0C13.7988 0 11.8701 0 11.3555 1.84375C10.8838 3.53369 9.55469 8.19824 9.51807 8.32666L9.15088 8.32666C9.15088 8.32666 7.79102 3.55811 7.31348 1.8374C6.79932 -0.00585938 4.86377 0 4.86377 0L0 0L0 14.02L4.86572 14.02L4.86572 5.69336L5.2334 5.69336L7.80566 14.02L10.8657 14.02L13.4375 5.69922L13.8052 5.69922L13.8052 14.02L18.4033 14.0215L18.4033 0.00146484L13.8052 0ZM29.9053 0C29.9053 0 28.6128 0.116699 28.0068 1.46973L24.8857 8.32666L24.5181 8.32666L24.5181 0L20.1108 0L20.1108 14.02L24.2729 14.02C24.2729 14.02 25.6265 13.8975 26.2329 12.5503L29.293 5.69336L29.6602 5.69336L29.6602 14.02L34.1772 14.02L34.1772 0L29.9053 0ZM35.9297 6.13428L35.9297 14.02L40.4346 14.02L40.4346 9.55127L46.0146 9.55127C48.0967 9.55127 49.8584 7.98975 50.5137 6.13623L35.9297 6.13428Z" fill="#000000" fill-opacity="1.000000" fill-rule="nonzero"/>
		<path id="Vector" d="M45.6006 0.0117188L35.5137 0.0117188C36.0176 2.33154 38.0786 4.19189 40.7417 4.79883C41.3604 4.93994 41.998 5.01172 42.6387 5.01172L50.4126 5.01172C50.4819 4.73486 50.5137 4.45312 50.5137 4.16016C50.5137 1.86865 48.3145 0.0117188 45.6006 0.0117188Z" fill="url(#paint_linear_176_25_0)" fill-opacity="1.000000" fill-rule="nonzero"/>
	</g>
</svg>
