<svg width="45.312500" height="14.500000" viewBox="0 0 45.3125 14.5" fill="none" xmlns="http://www.w3.org/2000/svg" xmlns:xlink="http://www.w3.org/1999/xlink">
	<desc>
			Created with Pixso.
	</desc>
	<defs>
		<clipPath id="clip176_17">
			<rect id="svg" width="45.312500" height="14.500000" fill="white" fill-opacity="0"/>
		</clipPath>
	</defs>
	<g clip-path="url(#clip176_17)">
		<path id="Vector" d="M19.6436 14.2583L15.9458 14.2583L18.2568 0.25L21.9546 0.25L19.6436 14.2583ZM12.8354 0.25L9.31055 9.88477L8.89355 7.81006L7.6499 1.51123C7.6499 1.51123 7.49951 0.25 5.89551 0.25L0.0683594 0.25L0 0.487793C0 0.487793 1.78174 0.853027 3.86768 2.08838L7.07959 14.2588L10.9321 14.2588L16.8149 0.25L12.8354 0.25ZM41.9175 14.2583L45.3125 14.2583L42.3525 0.25L39.3804 0.25C38.0078 0.25 37.6733 1.29395 37.6733 1.29395L32.1592 14.2583L36.0132 14.2583L36.7842 12.1777L41.4844 12.1777L41.9175 14.2583ZM37.8491 9.30322L39.7915 4.06104L40.8843 9.30322L37.8491 9.30322ZM32.4482 3.61914L32.9756 0.61084C32.9756 0.61084 31.3477 0 29.6504 0C27.8154 0 23.458 0.791016 23.458 4.63721C23.458 8.25635 28.5723 8.30127 28.5723 10.2021C28.5723 12.103 23.9849 11.7627 22.4712 10.5635L21.9214 13.709C21.9214 13.709 23.5723 14.5 26.0952 14.5C28.6182 14.5 32.4248 13.2114 32.4248 9.7041C32.4248 6.06201 27.2646 5.72266 27.2646 4.13916C27.2651 2.55566 30.8662 2.75879 32.4482 3.61914Z" fill="#000000" fill-opacity="1.000000" fill-rule="nonzero"/>
	</g>
</svg>
